<?xml version="1.0" encoding="UTF-8"?>
<svg id="Layer_2" data-name="Layer 2" xmlns="http://www.w3.org/2000/svg" xmlns:xlink="http://www.w3.org/1999/xlink" viewBox="0 0 1474.81 518.18">
  <defs>
    <style>
      .cls-1 {
        fill: #7bff51;
      }

      .cls-2 {
        fill: #000012;
      }

      .cls-3 {
        fill: url(#linear-gradient);
      }

      .cls-4 {
        fill: #00d29a;
        font-family: Roboto-Medium, Roboto;
        font-size: 27.42px;
        font-weight: 500;
      }

      .cls-5 {
        fill: #d5fd56;
      }
    </style>
    <linearGradient id="linear-gradient" x1="713.06" y1="39.2" x2="754.77" y2="591.75" gradientTransform="translate(22.41 -46.99) rotate(3.68)" gradientUnits="userSpaceOnUse">
      <stop offset="0" stop-color="#00d29a"/>
      <stop offset="1" stop-color="#7bff51"/>
    </linearGradient>
  </defs>
  <g id="Layer_1-2" data-name="Layer 1">
    <g>
      <path class="cls-2" d="M1467.87,300.61c-3.19-6.85-9.57-11.69-17.03-12.91-7.17-1.18-14.46,1.12-19.65,6.15,1.45-1.64,2.85-3.31,4.21-5.03,13.01-16.54,21.49-37.21,26.67-65.03,1.27-6.84-.64-13.9-5.19-19.16-4.56-5.27-11.26-8.18-18.21-7.9l-121.68,4.81c-.21,0-.41.02-.62.03,2.69-8.25,5.51-16.87,8.44-25.84l6.27-19.19c2.33-7.12,1.02-14.93-3.5-20.91-4.52-5.98-11.68-9.36-19.16-9.07l-39.46,1.56c-9.91.39-18.45,7.13-21.13,16.68-5.59,19.9-11.38,39.96-17.29,59.95-6.04-1.75-12.35-2.59-18.59-2.34-21.49.85-42.09,12.24-58.24,32.13-11.8-17.45-32.28-28.12-56.1-27.17-25.05.99-48.2,12-65.19,30.99-.72.81-1.43,1.62-2.12,2.45-11.65-18.25-32.56-29.49-56.99-28.53-17.44.69-33.62,6.08-47.47,15.4-7.54-21.87-20.49-41.19-37.94-56.15-28.36-24.31-65.91-35.1-108.6-31.19-40.23,3.68-76.83,18.82-108.78,45.02-9.47,7.77-11.15,21.62-3.81,31.42l25.17,33.61c3.82,5.1,9.59,8.37,15.92,9.04,5.71.6,11.42-.97,16.01-4.36-2.98,10.6-6.04,21.71-9.15,33.21l-18.38-11.66c-5.08-3.22-11.19-4.3-17.02-3.06.91-3.35,1.83-6.73,2.76-10.16,1.95-7.14.32-14.79-4.37-20.52-4.69-5.73-11.87-8.84-19.26-8.34l-40.69,2.75c-6.35.43-12.06,3.45-15.97,8.11-4.57-4.14-10.66-6.3-16.92-5.88l-40.69,2.75c-2.03.14-4,.54-5.87,1.18-1.09-.57-2.22-1.06-3.39-1.45,1.15-3.53,2.34-7.15,3.58-10.86,2.43-7.27,1.05-15.27-3.66-21.32-4.71-6.04-12.13-9.33-19.78-8.75l-35.89,2.72c-9.55.72-17.63,7.31-20.27,16.51l-7.64,26.63c-4.74,1.3-8.89,4.09-11.89,7.88-1.05-.07-2.12-.06-3.18.02-5.69.43-14.59.76-23.57.79-.92-2.52-2.28-4.88-4.05-6.98-4.74-5.59-11.87-8.57-19.18-8.02l-28.59,2.16c.67-7.71-.4-15.4-3.2-22.44-4.76-11.95-14.18-20.97-25.86-24.75-22.84-7.39-48.02,7-56.14,32.08-.68,2.1-1.22,4.24-1.63,6.38-5.39-6.95-11.47-13.37-18.22-19.15-29.23-25.05-67.96-36.17-111.99-32.15-41.54,3.8-79.34,19.44-112.34,46.49-9.47,7.77-11.15,21.62-3.81,31.42l26.1,34.85c3.82,5.1,9.59,8.37,15.92,9.04,6.33.67,12.66-1.34,17.46-5.53.2-.17.4-.35.6-.52-10.29,36.44-21.52,78.89-32.44,122.67-5.44-3.47-12.1-4.48-18.33-2.78-6.29,1.72-11.55,6.03-14.45,11.87l-20,40.13c-5.42,10.88-1.39,24.11,9.18,30.11,19.1,10.85,45.48,16.86,76.23,17.59,10.89.26,22.34-.14,34.2-1.23,42.81-3.91,81.7-19.94,112.46-46.35,15.96-13.7,29.53-29.91,40.29-47.97,8.25,4.11,18.11,5.75,29.42,4.9,14.91-1.13,35.52-9.12,56.61-37.52,2.77,6.11,6.67,11.6,11.54,16.14,10.39,9.67,24.53,14.36,39.83,13.21,12.91-.98,25.35-6.51,37.2-16.51,8.97,6.94,20.64,10.56,34.37,10.38-13.68,15.94-16.21,33.09-15.32,46.25,1.13,16.67,9.2,31.3,22.72,41.19,13.09,9.57,30.33,13.93,49.85,12.61,44.87-3.04,78.83-33.22,96.47-85.36.87-.45,1.73-.91,2.6-1.38-.73,8.65,3.52,17.3,11.5,21.83,18.54,10.53,44.11,16.36,73.91,17.07,10.53.25,21.6-.14,33.06-1.19,41.68-3.81,79.5-19.47,109.37-45.28,14.23-12.29,26.47-26.64,36.43-42.56,15.06,13.36,36.36,20.57,61.43,19.58,26.4-1.04,48.32-8.19,66.37-21.72,15.04,11.65,35.24,17.71,57.93,16.81,23.21-.92,42.88-6.5,59.51-16.97,10.51,8.71,23.87,13.23,38.72,12.64,12.37-.49,23.77-4.3,33.63-11.09,7.41,4.98,16.23,7.99,25.75,8.5-2.23,7.92-2.73,15.39-2.48,21.63,1.36,34.28,31.03,58.02,70.59,56.46,25.21-1,48.99-11.52,66.96-29.63,13.22-13.32,22.72-30.15,27.59-48.55,31.03-6.52,49.98-17.63,59.07-34.42,11.45-21.16,1.69-42.1-1.51-48.98ZM786.14,371.59c10.32-42.11,22.23-86.19,33.39-123.33,1.58-5.27,1.2-10.85-.95-15.77,16.78,10.14,20.23,29.5,20.93,37.15,3.88,42.44-19.75,84.36-53.37,101.94ZM149.47,423.29c10.81-44.22,23.34-90.67,35.07-129.71,1.84-6.14,1.02-12.71-2.17-18.15,3.14,1.63,6.03,3.62,8.66,5.96,8.93,7.99,14.57,20.26,15.87,34.53,4.12,45.03-21.42,89.5-57.44,107.36Z"/>
      <path class="cls-3" d="M1445.19,302.43c-16.1,16.87-37.5,25.24-57.46,29.21-2.26-11.58-7.34-24.46-16.79-32.45,38.82-17.91,57.73-39.28,66.7-87.44l-121.68,4.81c-7.84,29.65-18.2,62.31-36.46,87.49-6.49,7.8-12.6,12.36-17.55,12.55-12.5.49-.38-34.69,45.45-175.01l-39.46,1.56c-8.37,29.8-17.08,59.61-26.11,89.44-5.28-8.63-18.08-15.66-30.9-15.15-32.53,1.29-59.85,39.7-63.78,79.04-15.3,23.61-30.38,31.22-52.94,32.11-16.77.66-25.9-5.2-28.95-15.88,30.86,5.66,75.93-12.17,74.37-51.73-.83-20.92-16.72-39.61-43.03-38.57-40.42,1.6-66.81,36.12-70.6,73.9-16.42,27.63-31.99,36.25-56.1,37.2-16.77.66-25.9-5.2-28.95-15.88,30.86,5.66,75.93-12.17,74.37-51.73-.83-20.92-16.72-39.61-43.03-38.57-30.35,1.2-52.8,20.97-63.7,46.73.25-6.53.09-13-.49-19.37-5.18-56.64-50.68-106.51-128.65-99.38-38.09,3.48-70.06,18.37-96.35,39.93l25.17,33.61c18.79-16.42,44.33-30.38,73.43-33.04,48.15-4.4,75.23,26.3,78.67,63.94,5.89,64.44-40.34,129.53-101.78,135.15l-5.39.49c11.64-50.99,27.48-111.6,42.49-161.53l-47.43,4.33c-13.75,47.76-28.49,104.51-40.62,154.18-10.73-2.44-20.48-5.99-27.41-10.49l-19.29,38.7c21.78,12.37,56.57,16.37,93.58,12.99,79.22-7.24,129.11-59.72,146.88-117.58,2.24,35.08,30.13,50.48,61.52,49.24,33.83-1.34,54.12-14.02,68.73-31.84,10.19,19.32,31.88,27.86,55.57,26.93,30.52-1.21,50.02-11.64,64.28-26.77,6.25,15.02,18.2,23.06,33.95,22.44,16.77-.66,28.58-10.3,36.29-23.37,2.78,12,13.69,21.4,28.16,20.82h.33c14.48-.72,28.25-10.69,40.17-24.1.54-.56,1.08-1.15,1.62-1.8,20.14-23.72,33.94-49.48,45.5-82.02l51.96-2.05c-8.84,18.03-26.04,32.79-49.49,39.61l-7.3,23.54c10.43,5.48,16.13,16.39,18.88,27.74-.06,0-.12.02-.18.03,2.02,7.28,3.03,17.31-.15,29.46-1.41,5.85-3.62,11.46-6.49,16.46-.32.62-.66,1.23-1,1.86-.02-.03-.05-.05-.07-.07-6.52,10.39-16,17.72-27.04,18.16-8.22.33-14.32-4.02-14.59-10.88-.52-13.2,15.91-21.5,36.36-26.25,2.2-8.37,4.01-19.14,1.67-26.85-44.38,8.41-75.28,27.27-73.96,60.74.97,24.52,24.13,35.39,46.82,34.49,40.58-1.6,71.79-34.38,75.86-75.11,71.35-10.24,64.31-36.99,56.41-53.94ZM970.53,258.16c5.92-.23,9.68,3.22,9.63,10.42-.06,15.06-21.38,25.73-39.49,25.79,3.5-19.78,15.39-35.64,29.86-36.22ZM1094.83,253.25c5.92-.23,9.68,3.22,9.63,10.42-.06,15.06-21.38,25.73-39.49,25.79,3.5-19.78,15.39-35.64,29.86-36.22ZM1198.81,319.42c-8.55.34-12.44-6.38-12.8-15.54-.87-21.9,11.12-51.85,30.2-52.6,6.91-.27,12.63,2.78,17.75,7.48-11.21,41.37-23.31,60.19-35.15,60.66ZM703.44,301.65c-16.48,43.36-41.43,82.52-86.79,101.94-13.47,47.58-40.15,76.3-79.14,78.94-29.84,2.02-46.88-13.18-48.19-32.51-2.59-38.28,41.98-54.55,86.77-63.61-.99,8.86-5.85,20.43-9.96,28.93-21.73,5.18-39.97,15.29-39.18,27.03.37,5.43,4.71,9.22,12.17,8.72,11.56-.78,22.03-6.74,30.79-20.6,0,0,0,0,0,0,12.37-17.3,19.8-60.01,19.8-60.01l3.98-14.04c-5.21,8.53-18.27,16.91-31.16,17.78-21.13,1.43-31.38-8.23-34.63-24.55-11.83,17.12-26.7,31.39-42.96,32.62-21.27,1.61-31.16-8.28-33.94-25.63-11.76,16.83-26.45,30.76-42.51,31.97-19.14,1.45-30.36-11.54-31.51-26.8-1.34-17.65,5.5-34.71,15.56-60.74-5.11.09-10.86-.38-16.33-1.17-5.96,16.03-12.78,30.17-20.22,43.21-12.79,24.83-32.78,51.95-55.48,53.67-22.51,1.7-30.45-10.73-30.53-31.49-18.68,59.61-70.3,113.48-152.01,120.94-38.38,3.51-74.45-.64-97.04-13.47l20-40.13c7.19,4.66,17.29,8.35,28.42,10.88,12.58-51.5,27.86-110.35,42.12-159.88l49.18-4.49c-15.56,51.78-31.98,114.62-44.06,167.5l5.59-.51c63.72-5.82,111.65-73.32,105.54-140.14-3.57-39.04-31.65-70.87-81.58-66.3-30.18,2.76-56.66,17.23-76.14,34.26l-26.1-34.85c27.26-22.35,60.42-37.79,99.91-41.4,80.86-7.39,128.04,44.33,133.41,103.05.47,5.14.67,10.35.62,15.6,3.33-13.26,7.4-27.47,11.58-42.09l35.9-2.72c-14.97,52.58-29.43,92.18-15.07,91.09,3.98-.3,8.68-3.75,13.62-9.63,19.29-27.22,27.95-63.68,34.12-95.06l31.11-2.35-3.45,14.1c14.86,1.58,39.18.95,50.25.11-9.81,25.41-24.08,67.4-23.18,79.37.27,3.59,2.52,5.52,5.52,5.3,10.77-.81,26.72-24.58,38.68-57.38l.17.11c.74-3.14,1.52-6.34,2.34-9.58l-11.07.84,6.96-27.3,11.67-.88,11.9-41.51,35.89-2.72c-5.15,15.43-9.52,29.3-13.1,41.6l23.93-1.81-7.26,27.32-24.83,1.88c-14.63,53.15-12,64.08,1.16,63.09,10.77-.81,26.72-24.58,38.68-57.38l.36.23c2.78-10.87,6.22-22.23,9.99-33.73l40.69-2.75c-12.62,40.03-27.86,86.71-7.85,85.36,22.72-1.54,31.62-51.2,40.75-87.58l40.69-2.75c-11.47,42-20.66,77.37-31.29,116.58,22.5-14.81,39.76-36.76,55.36-78.01l21.36,13.54ZM295.37,226.89c4.24-13.09,16.47-20.86,27.32-17.35,10.85,3.51,16.21,16.97,11.97,30.06-4.24,13.09-16.47,20.86-27.32,17.35-10.85-3.51-16.21-16.97-11.97-30.06Z"/>
      <path class="cls-1" d="M931.02,243.16c11.14-9.29,25.07-15.21,41.25-15.85,26.31-1.04,42.2,17.65,43.03,38.57.76,19.32-9.6,33.45-24,42.2,10.15-8.73,16.78-20.95,16.16-36.54-.83-20.92-16.72-39.61-43.03-38.57-12.59.5-23.81,4.2-33.42,10.18ZM1088.74,228.07c26.31-1.04,42.2,17.65,43.03,38.57.62,15.59-6.02,27.8-16.16,36.54,14.4-8.75,24.76-22.88,24-42.2-.83-20.92-16.72-39.61-43.03-38.57-16.14.64-30.04,6.54-41.16,15.79,9.59-5.95,20.78-9.62,33.32-10.12ZM771.6,160.96c77.98-7.13,123.48,42.75,128.65,99.38.58,6.37.74,12.84.49,19.37,2.18-5.16,4.83-10.07,7.91-14.64-.07-3.49-.25-6.96-.56-10.39-5.18-56.64-50.68-106.51-128.65-99.38-35.53,3.25-65.74,16.43-90.98,35.68,23.59-16.16,51.22-27.1,83.15-30.01ZM580.43,368.5c1.56-.89,3.04-1.85,4.44-2.88l1-3.54c-1.34,2.19-3.2,4.37-5.44,6.41ZM1203.08,223.1c12.83-.51,25.62,6.52,30.9,15.15,1.12-3.69,2.21-7.37,3.32-11.06-6.42-5.96-16.38-10.15-26.39-9.76-11.19.44-21.76,5.28-30.98,13.03,7.2-4.4,15.01-7.04,23.14-7.36ZM703.44,301.65l-21.36-13.54c-1.11,2.93-2.23,5.76-3.36,8.5l16.88,10.71c-12.44,32.72-29.71,63.05-56.93,84.31,31.81-21.33,51.17-54.22,64.76-89.98ZM676.26,389.79c6.49,3.44,14.67,6.21,23.53,8.23.58-2.38,1.17-4.79,1.77-7.2-8.31-2.31-15.74-5.33-21.34-8.96l-3.95,7.93ZM650.17,255.2c-11.47,42-20.66,77.37-31.29,116.58,2.81-1.85,5.55-3.82,8.2-5.91-.12.08-.25.17-.37.25,10.63-39.22,19.82-74.59,31.29-116.58l-40.69,2.75c-.43,1.71-.86,3.46-1.29,5.22l34.15-2.31ZM708.25,228.83c2.18-1.91,4.46-3.78,6.82-5.61-2.46,1.66-4.86,3.38-7.16,5.15l.34.46ZM1429.79,217.41c-6.28,33.75-17.47,54.34-36.95,69.81,24.4-16.11,37.7-37.43,44.78-75.48l-121.68,4.81c-.47,1.79-.96,3.6-1.45,5.41l115.3-4.56ZM750.74,400.54c19.83-1.81,38.08-9.83,53.5-22.01-13.63,8.99-29.09,14.83-45.66,16.35l-5.39.49c11.64-50.99,27.48-111.6,42.49-161.53l-47.43,4.33c-.48,1.68-.97,3.39-1.45,5.08l41.05-3.75c-15,49.93-30.84,110.54-42.49,161.53l5.39-.49ZM1299.55,147.25c-45.83,140.32-57.94,175.5-45.45,175.01,3.58-.14,7.77-2.57,12.26-6.85-1.55.72-3.04,1.13-4.43,1.18-12.5.49-.38-34.69,45.45-175.01l-39.46,1.56c-.51,1.81-1.03,3.61-1.54,5.42l33.17-1.31ZM1057.4,318.37c3.06,10.68,12.18,16.55,28.95,15.88,14.95-.59,26.62-4.14,37.24-13.33-8.56,5.05-18.03,7.21-29.41,7.66-12.84.51-21.19-2.82-25.77-9.2-3.8-.04-7.5-.37-11.02-1.02ZM1057.14,295.13c11.92-.04,25.23-4.68,32.95-12.14-7.39,4.07-16.61,6.44-25.12,6.47,2.05-11.57,6.96-21.78,13.58-28.4-10.51,5.03-18.63,18.3-21.41,34.06ZM932.84,300.05c11.92-.04,25.23-4.68,32.95-12.14-7.39,4.07-16.61,6.44-25.12,6.47,2.05-11.57,6.96-21.78,13.58-28.4-10.51,5.03-18.63,18.3-21.41,34.06ZM933.1,323.28c3.06,10.68,12.18,16.55,28.95,15.88,14.95-.59,26.62-4.14,37.24-13.33-8.56,5.05-18.03,7.21-29.4,7.66-12.84.51-21.19-2.82-25.77-9.2-3.8-.04-7.5-.37-11.02-1.02ZM1143.65,339.19c-2.49,2.64-5.15,5.14-7.99,7.47,3.03-1.92,5.87-4.01,8.54-6.25-.18-.41-.38-.8-.55-1.22ZM1332.23,341.91c1.99,6.56.97,15.34-.73,22.97,2.23-.64,4.54-1.24,6.89-1.79,2.2-8.37,4.01-19.14,1.67-26.85-23.61,4.47-43.41,11.91-56.57,22.93,12.66-7.96,29.42-13.61,48.74-17.26ZM1339.99,283.06l-1.05,3.38c9.02-3.4,16.98-8.01,23.72-13.56-6.7,4.26-14.28,7.74-22.67,10.18ZM1198.81,319.42c-8.55.34-12.44-6.38-12.8-15.54-.61-15.43,5.17-34.84,15.3-45.23-14.91,6.71-23.89,31.84-23.13,50.9.36,9.15,4.25,15.88,12.8,15.54,3.85-.15,7.74-2.26,11.61-6.45-1.26.47-2.52.74-3.77.79ZM1308.79,405.89c7.31-.29,13.93-3.61,19.47-8.84-3.61,1.88-7.52,3.01-11.63,3.17-8.22.33-14.32-4.02-14.59-10.88-.19-4.73,1.82-8.83,5.39-12.37-8.31,4.59-13.52,10.52-13.23,18.03.27,6.87,6.37,11.21,14.59,10.88ZM1290.39,329.32c.54-.56,1.08-1.15,1.62-1.8,19.01-22.38,32.37-46.58,43.52-76.59l-5.85.23c-11.56,32.55-25.36,58.3-45.5,82.02-.55.64-1.09,1.24-1.62,1.8-3.72,4.18-7.62,8.03-11.66,11.37,6.88-4.27,13.43-10.21,19.49-17.03ZM1379.89,337.3c16.72-3.32,34.43-9.76,49.21-21.66-12.98,8.36-27.52,13.24-41.38,16-2.15-11.04-6.88-23.23-15.49-31.27-2.92,1.53-5.95,3.02-9.14,4.49,9.45,7.99,14.53,20.86,16.79,32.45ZM443.18,362.31c-5.49,7.86-11.63,15.09-18.25,20.69,6.77-4.07,13.14-10.05,18.97-17.03-.28-1.18-.52-2.4-.73-3.66ZM608.82,409.25c-7.78,27.46-19.96,48.62-36.36,62.13,19.89-12.51,34.47-34.98,43.5-65.45-2.33,1.16-4.7,2.27-7.14,3.32ZM568.25,392.07c-.84,7.5-4.45,16.94-8.03,24.82,1.93-.56,3.91-1.08,5.91-1.56,4.1-8.5,8.97-20.07,9.96-28.93-26.88,5.44-53.66,13.47-70.24,27.29,16.52-10.43,39.43-16.98,62.41-21.63ZM262.16,370.96c-10.18,32.48-30.14,63.26-59.42,85.75,27.87-18.95,48.19-45.11,60.62-73.65-.8-3.62-1.18-7.67-1.19-12.1ZM893.55,321.63c-9.71,31.61-29,61.61-57.43,83.51,27.37-18.58,47.2-44.36,59.15-72.44-.87-3.45-1.46-7.13-1.71-11.08ZM1445.19,302.43c-2.33,2.44-4.79,4.69-7.32,6.79,4.49,9.97,8.14,22.97-3.71,34.05,21.62-12.43,16.54-29.01,11.03-40.83ZM1380.94,362.03c-2.33,23.32-13.56,44.01-30.34,57.76,19.9-12.55,33.84-34.03,37.6-58.91-2.33.4-4.74.79-7.25,1.15ZM114.38,451.81c20.51-1.87,39.38-10.14,55.34-22.72-14.17,9.38-30.26,15.48-47.5,17.05l-5.59.51c12.08-52.88,28.5-115.72,44.06-167.5l-49.18,4.49c-.48,1.68-.97,3.38-1.46,5.08l42.81-3.91c-15.56,51.78-31.98,114.62-44.06,167.5l5.59-.51ZM1213.9,338.26c-2.8,4.75-6.16,9.04-10.08,12.62,4.21-2.36,7.94-5.43,11.19-9.04-.45-1.16-.82-2.36-1.1-3.58ZM1023.8,339.03c-3.73,4.55-7.83,8.76-12.43,12.53,4.97-3.15,9.41-6.75,13.44-10.71-.35-.6-.69-1.2-1.01-1.82ZM368.39,305.57c-5.96,16.03-12.78,30.17-20.22,43.21-7.98,15.48-18.76,31.86-31.24,42.41,15.82-9.51,29.47-29.44,39.08-48.07,6.44-11.3,12.42-23.43,17.78-36.89-1.81-.18-3.62-.4-5.4-.66ZM506.96,221.72c-5.15,15.43-9.52,29.3-13.1,41.6l23.93-1.81-5.88,22.15,6.46-.49,7.26-27.32-23.93,1.81c3.58-12.3,7.95-26.17,13.1-41.6l-35.89,2.72-1.49,5.19,29.55-2.24ZM520.95,358.92c-.33-1.16-.62-2.36-.87-3.6-5.61,8.12-11.91,15.6-18.72,21.35,7.01-4.21,13.59-10.47,19.59-17.75ZM576.59,260.18c-12.62,40.03-27.86,86.71-7.85,85.36,4.77-.32,8.92-2.77,12.6-6.76-1.52.6-3.11.98-4.77,1.09-20.01,1.35-4.77-45.33,7.85-85.36l-40.69,2.75c-.58,1.75-1.14,3.5-1.7,5.25l34.56-2.34ZM531.29,456.74c7.88-.53,15.25-3.48,21.92-9.68-4.47,2.41-9.18,3.69-14.09,4.02-7.46.5-11.81-3.29-12.17-8.72-.28-4.17,1.85-8.13,5.67-11.74-8.56,4.93-13.94,10.92-13.51,17.41.37,5.43,4.71,9.22,12.17,8.72ZM485.71,290.72c-14.63,53.15-12,64.08,1.16,63.09,3.17-.24,6.8-2.49,10.63-6.36-.97.38-1.9.62-2.8.69-12.72.96-15.61-9.22-2.57-57.91l-6.43.49ZM459.16,265.95l1.49-5.19-5.32.4-1.32,5.17,5.15-.39ZM310.28,362.66c-14.36,1.09.09-38.51,15.07-91.09l-35.9,2.72c-.5,1.73-.99,3.46-1.48,5.19l29.54-2.24c-14.97,52.58-29.43,92.18-15.07,91.09,3.17-.24,6.79-2.48,10.63-6.35-.96.38-1.9.61-2.8.68ZM136.01,203.38c80.86-7.39,128.04,44.33,133.41,103.05.47,5.14.67,10.35.62,15.6,2.03-8.09,4.34-16.54,6.78-25.22-7.08-57.07-53.93-106.33-132.97-99.1-36.76,3.36-68.03,16.98-94.17,36.87,24.49-16.8,53.18-28.17,86.34-31.2ZM314.86,215.21c10.85,3.51,16.21,16.97,11.97,30.06-1.37,4.23-3.57,7.9-6.29,10.81,6.23-2.76,11.6-8.67,14.13-16.48,4.24-13.09-1.12-26.55-11.97-30.06-7.34-2.38-15.32.42-21.02,6.53,4.21-1.86,8.81-2.28,13.19-.87ZM381.29,261.28l-3.45,14.1c14.86,1.58,39.18.95,50.25.11-9.81,25.41-24.08,67.4-23.18,79.37.27,3.59,2.52,5.52,5.52,5.3,3.17-.24,6.8-2.49,10.64-6.36-.97.38-1.9.62-2.8.69-2.99.23-5.24-1.71-5.52-5.3-.91-11.96,13.37-53.96,23.18-79.37-11.07.84-35.39,1.47-50.25-.11l3.45-14.1-31.11,2.35c-.33,1.7-.68,3.42-1.03,5.15l24.3-1.84Z"/>
      <text class="cls-4" transform="translate(1423.42 411.68)"><tspan x="0" y="0">TM</tspan></text>
      <path class="cls-5" d="M1075.83,182.75l79.47-77.11c6.1-5.92,6.25-15.66.33-21.76h0c-5.92-6.1-15.66-6.25-21.76-.33l-63.86,61.97,1.96-129.91c.13-8.5-6.66-15.49-15.15-15.62h0c-8.5-.13-15.49,6.66-15.62,15.15l-1.96,129.89-61.95-63.84c-5.92-6.1-15.66-6.25-21.76-.33h0c-6.1,5.92-6.25,15.66-.33,21.76l77.11,79.47,14.41,14.85c3.88,4,10.26,4.09,14.26.21l14.85-14.41Z"/>
    </g>
  </g>
</svg>