<?xml version="1.0" encoding="UTF-8"?>
<svg id="Layer_2" data-name="Layer 2" xmlns="http://www.w3.org/2000/svg" viewBox="0 0 205.82 196.86">
  <defs>
    <style>
      .cls-1 {
        fill: #df3257;
      }
    </style>
  </defs>
  <g id="Layer_1-2" data-name="Layer 1">
    <path class="cls-1" d="M123,179.88l78.22-75.9c6-5.82,6.15-15.41.32-21.41h0c-5.82-6-15.41-6.15-21.41-.32l-62.86,60.99,1.93-127.87C119.32,7.01,112.65.13,104.28,0h0c-8.36-.13-15.24,6.55-15.37,14.91l-1.93,127.85-60.98-62.84c-5.82-6-15.41-6.15-21.41-.32h0c-6,5.82-6.15,15.41-.32,21.41l75.9,78.22,14.18,14.62c3.82,3.93,10.1,4.03,14.03.21l14.62-14.18Z"/>
  </g>
</svg>