<?xml version="1.0" encoding="UTF-8"?>
<svg id="Layer_2" data-name="Layer 2" xmlns="http://www.w3.org/2000/svg" xmlns:xlink="http://www.w3.org/1999/xlink" viewBox="0 0 1439.13 579.8">
  <defs>
    <style>
      .cls-1 {
        fill: #7bff51;
      }

      .cls-2 {
        fill: #000012;
      }

      .cls-3 {
        fill: url(#linear-gradient);
      }

      .cls-4 {
        fill: #df3257;
      }

      .cls-5 {
        fill: #00d29a;
        font-family: Roboto-Medium, Roboto;
        font-size: 26.99px;
        font-weight: 500;
      }
    </style>
    <linearGradient id="linear-gradient" x1="690.58" y1="67.25" x2="731.62" y2="611.1" gradientUnits="userSpaceOnUse">
      <stop offset="0" stop-color="#00d29a"/>
      <stop offset="1" stop-color="#7bff51"/>
    </linearGradient>
  </defs>
  <g id="Layer_1-2" data-name="Layer 1">
    <g>
      <path class="cls-2" d="M1430.49,278.76c-3.57-6.53-10.14-10.87-17.54-11.61-7.12-.71-14.13,2.01-18.91,7.28,1.32-1.7,2.59-3.43,3.81-5.21,11.74-17.07,18.76-37.9,22.09-65.56.82-6.8-1.5-13.61-6.31-18.49-4.81-4.88-11.58-7.32-18.39-6.6l-119.21,12.41c-.2.02-.4.04-.6.07,2.12-8.28,4.35-16.92,6.66-25.91l4.95-19.25c1.83-7.14.06-14.73-4.76-20.32-4.82-5.58-12.07-8.46-19.39-7.7l-38.66,4.03c-9.71,1.01-17.67,8.17-19.7,17.72-4.23,19.9-8.65,39.97-13.19,59.98-6.04-1.34-12.3-1.76-18.41-1.12-21.06,2.19-40.57,14.68-55.18,35.24-12.7-16.39-33.49-25.58-56.82-23.14-24.54,2.56-46.59,14.83-62.08,34.56-.66.84-1.3,1.68-1.93,2.54-12.59-17.19-33.84-26.91-57.78-24.42-17.09,1.78-32.64,8.1-45.66,18.13-8.79-21.01-22.73-39.17-40.81-52.75-29.4-22.08-66.96-30.31-108.65-23.78-39.28,6.15-74.27,23.34-104.01,51.09-8.81,8.23-9.59,21.94-1.75,31.1l26.85,31.42c4.07,4.77,9.95,7.62,16.21,7.87,5.65.23,11.16-1.68,15.45-5.3-2.26,10.6-4.56,21.71-6.89,33.2l-18.79-10.29c-5.2-2.84-11.27-3.51-16.91-1.93.68-3.35,1.37-6.73,2.07-10.15,1.46-7.14-.62-14.55-5.59-19.88-4.97-5.33-12.21-7.94-19.44-6.97l-39.8,5.28c-6.21.82-11.63,4.15-15.18,8.97-4.75-3.78-10.87-5.52-16.99-4.71l-39.8,5.28c-1.99.26-3.89.78-5.69,1.53-1.11-.5-2.25-.9-3.42-1.21.9-3.54,1.85-7.18,2.83-10.89,1.92-7.29.07-15.07-4.94-20.71-5.01-5.64-12.51-8.4-19.98-7.35l-35.09,4.94c-9.33,1.31-16.86,8.3-18.87,17.5l-5.82,26.64c-4.57,1.58-8.47,4.58-11.18,8.49-1.04,0-2.08.07-3.13.22-5.56.78-14.28,1.67-23.1,2.27-1.06-2.41-2.54-4.65-4.42-6.6-5.01-5.19-12.2-7.67-19.35-6.66l-27.95,3.93c.17-7.61-1.37-15.11-4.56-21.84-5.43-11.43-15.26-19.7-26.96-22.67-22.9-5.82-46.73,9.91-53.11,35.05-.54,2.11-.93,4.24-1.2,6.37-5.73-6.48-12.11-12.41-19.1-17.66-30.3-22.76-69.04-31.23-112.03-24.5-40.56,6.35-76.7,24.11-107.41,52.77-8.81,8.23-9.59,21.94-1.76,31.1l27.84,32.58c4.07,4.77,9.95,7.62,16.21,7.87,6.26.26,12.35-2.11,16.8-6.53.18-.18.37-.36.56-.55-7.81,36.45-16.15,78.85-24.12,122.54-5.56-3.06-12.16-3.64-18.18-1.57-6.07,2.08-10.96,6.66-13.45,12.57l-17.11,40.68c-4.64,11.03.15,23.77,10.92,29,19.45,9.45,45.74,13.68,75.99,12.46,10.72-.43,21.93-1.55,33.51-3.37,41.81-6.55,78.99-24.75,107.54-52.63,14.81-14.46,27.12-31.24,36.55-49.67,8.37,3.51,18.15,4.51,29.21,2.95,14.57-2.05,34.31-11.21,53.24-40.43,3.11,5.83,7.28,10.97,12.36,15.13,10.81,8.85,25,12.56,39.95,10.46,12.62-1.78,24.49-7.99,35.5-18.57,9.25,6.25,20.94,9.07,34.41,8.03-12.43,16.52-13.83,33.53-12.13,46.4,2.16,16.3,11.01,30.16,24.92,39.02,13.46,8.57,30.67,11.77,49.76,9.24,43.88-5.82,75.33-37.61,89.36-89.94.83-.49,1.65-1.01,2.46-1.52-.17,8.54,4.55,16.77,12.68,20.72,18.88,9.17,44.36,13.28,73.67,12.1,10.36-.42,21.21-1.5,32.4-3.25,40.7-6.37,76.86-24.15,104.57-51.39,13.2-12.97,24.32-27.84,33.09-44.1,15.64,12.17,37.02,17.91,61.58,15.35,25.86-2.69,46.95-11.1,63.82-25.53,15.51,10.49,35.73,15.16,57.97,12.85,22.74-2.37,41.71-9.1,57.38-20.43,10.87,7.89,24.28,11.48,38.83,9.97,12.12-1.26,23.08-5.73,32.33-13.01,7.59,4.42,16.45,6.83,25.83,6.73-1.69,7.92-1.71,15.29-1.07,21.4,3.5,33.58,34.15,55.03,72.91,51,24.7-2.57,47.39-14.41,63.9-33.33,12.15-13.92,20.41-31.05,24.03-49.43,30.07-8.36,47.97-20.47,55.84-37.54,9.91-21.51-1-41.46-4.58-48.02ZM765.34,391.56c7.48-42.01,16.39-86.07,25.01-123.25,1.22-5.27.49-10.73-1.93-15.43,17.12,8.9,21.74,27.69,22.91,35.17,6.49,41.44-14.07,84.11-45.98,103.5ZM143.24,482.57c7.82-44.11,17.2-90.53,26.25-129.62,1.42-6.14.2-12.55-3.28-17.69,3.19,1.4,6.16,3.17,8.88,5.31,9.28,7.29,15.59,18.98,17.77,32.91,6.89,43.97-15.38,89.26-49.64,109.09Z"/>
      <path class="cls-3" d="M1408.32,281.98c-14.75,17.59-35.24,27.16-54.6,32.32-2.95-11.24-8.76-23.56-18.54-30.81,37-20.04,54.23-42.23,59.99-90.11l-119.21,12.41c-5.83,29.62-13.94,62.36-30.29,88.24-5.88,8.07-11.59,12.93-16.45,13.44-12.24,1.27-2.57-34.05,33.58-174.78l-38.66,4.03c-6.34,29.8-13.01,59.63-19.99,89.5-5.73-8.15-18.74-14.24-31.31-12.93-31.87,3.32-56.28,42.77-57.66,81.66-13.53,24.16-27.87,32.58-49.98,34.88-16.43,1.71-25.76-3.47-29.44-13.77,30.67,3.61,73.82-16.75,69.78-55.51-2.13-20.5-18.92-37.85-44.7-35.17-39.61,4.12-63.35,39.7-64.67,77.05-14.38,28.18-29.13,37.62-52.75,40.08-16.43,1.71-25.76-3.47-29.44-13.77,30.67,3.61,73.82-16.75,69.78-55.51-2.13-20.5-18.92-37.85-44.7-35.17-29.74,3.1-50.53,23.93-59.61,49.93-.17-6.43-.73-12.78-1.7-18.99-8.66-55.3-56.51-101.42-132.65-89.49-37.19,5.83-67.66,22.47-92.12,45.3l26.85,31.42c17.42-17.32,41.62-32.64,70.04-37.1,47.02-7.36,75.56,21.08,81.32,57.83,9.86,62.92-31.44,129.78-91.44,139.18l-5.26.82c8.22-50.82,19.94-111.36,31.53-161.35l-46.32,7.25c-10.49,47.79-21.38,104.46-30.16,154.01-10.69-1.72-20.49-4.59-27.59-8.57l-16.5,39.23c22.18,10.78,56.6,12.51,92.74,6.85,77.36-12.12,123.05-66.82,136.84-124.77,4.42,34.31,32.78,47.68,63.54,44.48,33.14-3.45,52.27-17.19,65.5-35.62,11.23,18.33,33.08,25.36,56.29,22.94,29.9-3.11,48.4-14.6,61.45-30.35,7.09,14.36,19.34,21.5,34.76,19.9,16.43-1.71,27.42-11.92,34.17-25.25,3.49,11.62,14.8,20.15,28.98,18.68l.32-.03c14.18-1.61,27.07-12.27,37.94-26.2.49-.58.98-1.2,1.48-1.87,18.29-24.57,30.22-50.74,39.51-83.44l50.91-5.3c-7.54,18.27-23.51,33.85-46.1,42.04l-5.69,23.58c10.59,4.73,16.88,15.08,20.3,26.05-.06.01-.12.03-.18.04,2.44,7.02,4.07,16.81,1.71,28.95-1.01,5.83-2.83,11.49-5.34,16.58-.28.62-.57,1.25-.87,1.89-.03-.02-.05-.04-.08-.07-5.74,10.62-14.6,18.42-25.41,19.55-8.06.84-14.32-3.04-15.02-9.77-1.35-12.93,14.27-22.13,34.06-28.08,1.63-8.36,2.73-19.05-.06-26.48-43.06,11.06-72.22,31.55-68.81,64.33,2.5,24.02,25.93,33.24,48.17,30.92,39.76-4.14,68.34-38.3,69.76-78.57,69.44-14.57,60.83-40.39,52-56.54ZM939.29,268.49c5.8-.6,9.71,2.55,10.12,9.63.89,14.8-19.37,26.63-37.16,27.83,2.19-19.65,12.86-35.98,27.04-37.46ZM1061.08,255.81c5.8-.6,9.71,2.55,10.12,9.63.89,14.8-19.37,26.63-37.16,27.83,2.19-19.65,12.86-35.98,27.04-37.46ZM1167.39,314.24c-8.38.87-12.62-5.48-13.56-14.45-2.23-21.46,7.65-51.63,26.34-53.58,6.77-.7,12.58,1.93,17.91,6.23-8.4,41.35-19.09,60.59-30.69,61.8ZM679.69,328.08c-13.45,43.63-35.48,83.67-78.8,105.62-10.23,47.59-34.61,77.48-72.75,82.54-29.18,3.87-46.88-9.98-49.39-28.89-4.96-37.44,37.79-56.23,81.21-67.97-.41,8.76-4.46,20.44-7.95,29.04-21.02,6.46-38.3,17.55-36.78,29.02.7,5.31,5.21,8.76,12.51,7.79,11.31-1.5,21.21-8.01,28.95-22.18,0,0,0,0,0,0,11.06-17.77,15.65-60.2,15.65-60.2l3.02-14.05c-4.58,8.71-16.88,17.76-29.48,19.43-20.67,2.74-31.34-6.1-35.57-21.93-10.54,17.56-24.24,32.52-40.13,34.75-20.79,2.92-31.13-6.16-34.95-23.03-10.48,17.27-24.04,31.88-39.73,34.09-18.71,2.63-30.55-9.42-32.64-24.33-2.43-17.25,3.2-34.44,11.45-60.65-5.01.41-10.69.31-16.12-.12-4.84,16.12-10.65,30.45-17.13,43.72-11,25.19-28.92,53.1-51.11,56.22-22,3.09-30.59-8.62-31.98-29-14.58,59.73-61.89,115.91-141.67,128.4-37.48,5.87-73.17,4.07-96.17-7.1l17.11-40.68c7.36,4.12,17.52,7.11,28.6,8.89,9.1-51.38,20.4-110.15,31.27-159.7l48.03-7.52c-12.01,51.84-24.17,114.61-32.69,167.31l5.46-.85c62.22-9.75,105.03-79.08,94.81-144.32-5.97-38.12-35.56-67.61-84.32-59.97-29.47,4.62-54.57,20.51-72.63,38.47l-27.84-32.58c25.37-23.68,56.96-40.94,95.52-46.98,78.95-12.37,128.57,35.45,137.55,92.8.79,5.02,1.31,10.13,1.59,15.29,2.43-13.23,5.53-27.45,8.72-42.07l35.09-4.94c-11.39,52.59-23.08,92.4-9.05,90.43,3.89-.55,8.29-4.23,12.77-10.32,17.22-27.96,23.43-64.32,27.5-95.53l30.41-4.28-2.49,14.07c14.7.62,38.54-1.55,49.36-3.07-8.03,25.58-19.39,67.73-17.75,79.43.49,3.51,2.83,5.27,5.75,4.86,10.53-1.48,24.69-25.84,34.37-58.8l.17.09c.52-3.13,1.09-6.32,1.69-9.56l-10.82,1.52,5.11-27.26,11.4-1.6,9.07-41.53,35.09-4.94c-4.08,15.48-7.5,29.38-10.24,41.69l23.39-3.29-5.4,27.3-24.27,3.41c-11.01,53.13-7.74,63.7,5.13,61.89,10.53-1.48,24.69-25.84,34.37-58.8l.36.2c2.05-10.85,4.7-22.23,7.68-33.76l39.8-5.28c-9.87,40.12-21.89,86.93-2.32,84.34,22.22-2.95,27.83-52.29,34.49-88.6l39.8-5.28c-8.61,41.98-15.4,77.3-23.37,116.49,21.17-15.97,36.73-38.62,49.45-80.13l21.83,11.95ZM274.15,280.43c3.33-13.13,14.86-21.53,25.73-18.77,10.88,2.76,16.99,15.65,13.66,28.77-3.33,13.13-14.86,21.53-25.73,18.77-10.88-2.76-16.99-15.65-13.66-28.77Z"/>
      <path class="cls-1" d="M899.54,256.26c10.35-9.83,23.66-16.52,39.52-18.17,25.78-2.68,42.57,14.67,44.7,35.17,1.97,18.93-7.32,33.47-20.91,42.97,9.42-9.22,15.16-21.63,13.57-36.91-2.13-20.5-18.92-37.85-44.7-35.17-12.33,1.28-23.12,5.63-32.18,12.11ZM1053.51,231.46c25.78-2.68,42.57,14.67,44.7,35.17,1.59,15.28-4.15,27.69-13.57,36.91,13.59-9.5,22.88-24.04,20.91-42.97-2.13-20.5-18.92-37.85-44.7-35.17-15.82,1.65-29.09,8.32-39.43,18.11,9.04-6.45,19.8-10.77,32.09-12.05ZM737.75,185.59c76.14-11.93,123.99,34.19,132.65,89.49.97,6.22,1.53,12.57,1.7,18.99,1.82-5.2,4.11-10.19,6.84-14.88-.29-3.42-.68-6.82-1.21-10.17-8.66-55.3-56.51-101.42-132.65-89.49-34.7,5.43-63.54,20.29-87.11,40.8,22.15-17.36,48.6-29.85,79.78-34.74ZM563.09,401.52c1.47-.97,2.87-2.01,4.18-3.11l.76-3.54c-1.18,2.24-2.87,4.49-4.94,6.64ZM1165.5,219.36c12.57-1.31,25.58,4.78,31.31,12.93.86-3.69,1.71-7.38,2.56-11.07-6.68-5.45-16.73-8.94-26.53-7.92-10.96,1.14-21.04,6.56-29.6,14.76,6.79-4.78,14.3-7.87,22.27-8.7ZM679.69,328.08l-21.83-11.95c-.9,2.95-1.83,5.8-2.76,8.57l17.26,9.45c-10.15,32.93-25.2,63.81-50.59,86.41,29.89-22.96,46.83-56.49,57.93-92.47ZM658.56,416.38c6.59,2.97,14.8,5.18,23.63,6.59.42-2.37.85-4.78,1.28-7.18-8.3-1.75-15.8-4.24-21.53-7.45l-3.38,8.04ZM624.44,285.82c-8.61,41.98-15.4,77.3-23.37,116.49,2.65-2,5.21-4.1,7.68-6.33-.12.09-.23.18-.35.27,7.97-39.19,14.76-74.51,23.37-116.49l-39.8,5.28c-.31,1.71-.62,3.45-.94,5.21l33.4-4.43ZM679.82,256.25c2.02-2.01,4.14-3.99,6.34-5.94-2.32,1.79-4.56,3.63-6.71,5.51l.37.43ZM1387.83,199.45c-4.04,33.55-13.72,54.48-31.88,70.9,22.95-17.36,34.67-39.15,39.22-76.96l-119.21,12.41c-.35,1.79-.71,3.6-1.08,5.41l112.96-11.76ZM732.4,422.23c19.37-3.03,36.78-12.06,51.16-25-12.82,9.69-27.64,16.41-43.82,18.94l-5.26.82c8.22-50.82,19.94-111.36,31.53-161.35l-46.32,7.25c-.37,1.68-.74,3.39-1.11,5.08l40.09-6.28c-11.58,49.99-23.31,110.53-31.53,161.35l5.26-.82ZM1255.47,138.76c-36.15,140.72-45.83,176.05-33.58,174.78,3.51-.37,7.47-3.02,11.61-7.5-1.48.8-2.91,1.3-4.27,1.44-12.24,1.27-2.57-34.05,33.58-174.78l-38.66,4.03c-.38,1.81-.78,3.61-1.17,5.42l32.49-3.38ZM1028.43,322.14c3.68,10.3,13.01,15.48,29.44,13.77,14.65-1.53,25.88-5.74,35.74-15.44-8.09,5.5-17.26,8.22-28.4,9.38-12.58,1.31-20.99-1.43-25.89-7.41-3.73.2-7.39.11-10.89-.3ZM1026.7,299.33c11.71-.79,24.49-6.19,31.6-14-7,4.46-15.91,7.38-24.26,7.94,1.28-11.49,5.46-21.84,11.55-28.75-10,5.6-17.14,19.15-18.88,34.81ZM904.91,312.01c11.71-.79,24.49-6.19,31.6-14-7,4.46-15.91,7.38-24.26,7.94,1.28-11.49,5.46-21.84,11.55-28.75-10,5.6-17.14,19.15-18.88,34.81ZM906.64,334.82c3.68,10.3,13.01,15.48,29.44,13.77,14.65-1.53,25.88-5.74,35.74-15.44-8.09,5.5-17.25,8.22-28.4,9.38-12.58,1.31-20.99-1.43-25.89-7.41-3.73.2-7.39.11-10.89-.3ZM1114.46,337.15c-2.28,2.75-4.73,5.37-7.37,7.84,2.86-2.08,5.52-4.31,7.99-6.68-.21-.39-.42-.76-.62-1.16ZM1299.87,327.9c2.37,6.32,1.93,15.01.74,22.61,2.15-.77,4.38-1.51,6.66-2.19,1.63-8.36,2.73-19.05-.06-26.48-22.91,5.89-41.89,14.44-54.12,26.1,11.94-8.62,28.04-15.22,46.78-20.04ZM1303.77,269.6l-.82,3.39c8.64-3.91,16.17-8.94,22.44-14.82-6.31,4.61-13.53,8.51-21.63,11.44ZM1167.39,314.24c-8.38.87-12.62-5.48-13.56-14.45-1.57-15.12,2.87-34.55,12.17-45.4-14.22,7.53-21.45,32.79-19.51,51.46.93,8.97,5.18,15.33,13.56,14.45,3.78-.39,7.46-2.71,10.99-7.07-1.21.54-2.43.88-3.66,1.01ZM1280.89,392.22c7.16-.75,13.45-4.43,18.56-9.91-3.43,2.08-7.19,3.43-11.23,3.85-8.06.84-14.32-3.04-15.02-9.77-.48-4.64,1.23-8.79,4.52-12.49-7.88,5.03-12.62,11.19-11.85,18.55.7,6.73,6.97,10.61,15.02,9.77ZM1257.97,318.17c.49-.58.98-1.2,1.48-1.87,17.25-23.18,28.85-47.8,37.91-77.98l-5.74.6c-9.3,32.7-21.23,58.87-39.51,83.44-.5.67-.99,1.29-1.48,1.87-3.39,4.34-6.97,8.37-10.73,11.9,6.48-4.63,12.54-10.87,18.07-17.96ZM1346.39,320.36c16.22-4.32,33.2-11.76,46.97-24.39-12.23,9.03-26.2,14.75-39.63,18.33-2.81-10.7-8.22-22.39-17.19-29.74-2.77,1.68-5.66,3.34-8.69,4.99,9.79,7.25,15.59,19.58,18.54,30.81ZM427.89,404.11c-4.9,8.07-10.47,15.56-16.62,21.48,6.39-4.43,12.27-10.71,17.56-17.92-.35-1.14-.67-2.32-.94-3.55ZM593.55,439.76c-5.9,27.47-16.53,49.02-31.79,63.32,18.75-13.54,31.65-36.54,38.59-67.04-2.21,1.28-4.47,2.53-6.8,3.71ZM552.62,425.44c-.35,7.42-3.3,16.92-6.32,24.89,1.86-.67,3.77-1.31,5.71-1.9,3.49-8.61,7.54-20.28,7.95-29.04-26.05,7.04-51.86,16.62-67.27,31.25,15.57-11.29,37.66-19.17,59.93-25.18ZM250.63,424.05c-7.95,32.55-25.61,64.04-52.95,87.98,26.18-20.38,44.48-47.36,54.89-76.17-1.01-3.5-1.64-7.46-1.94-11.81ZM867.69,335.7c-7.54,31.66-24.6,62.35-51.14,85.66,25.71-19.98,43.56-46.56,53.52-74.89-1.07-3.33-1.89-6.91-2.38-10.77ZM1408.32,281.98c-2.14,2.55-4.41,4.91-6.76,7.13,5.04,9.51,9.45,22.05-1.49,33.68,20.45-13.57,14.41-29.54,8.25-40.81ZM1348.98,344.59c-.81,23.05-10.54,44.09-26.16,58.65,18.75-13.58,31.09-35.56,33.21-60.24-2.26.54-4.6,1.07-7.05,1.58ZM110.58,512.79c20.02-3.14,38.04-12.45,52.92-25.81-13.33,10.1-28.74,17.11-45.58,19.75l-5.46.85c8.52-52.7,20.68-115.47,32.69-167.31l-48.03,7.52c-.37,1.68-.74,3.38-1.11,5.09l41.8-6.55c-12.01,51.84-24.17,114.61-32.69,167.31l5.46-.85ZM1183.4,331.79c-2.45,4.84-5.48,9.27-9.11,13.03,3.99-2.58,7.45-5.83,10.42-9.58-.51-1.11-.95-2.26-1.31-3.45ZM996.73,344.56c-3.37,4.7-7.14,9.1-11.41,13.09,4.68-3.41,8.81-7.22,12.52-11.37-.38-.56-.75-1.14-1.11-1.72ZM350.84,353.11c-4.84,16.12-10.65,30.45-17.13,43.72-6.86,15.71-16.41,32.48-28.01,43.63,14.93-10.34,27.09-30.78,35.35-49.69,5.61-11.5,10.72-23.8,15.13-37.36-1.79-.06-3.58-.16-5.34-.3ZM481.65,261.99c-4.08,15.48-7.5,29.38-10.24,41.69l23.39-3.29-4.38,22.13,6.31-.89,5.4-27.3-23.39,3.29c2.74-12.31,6.15-26.21,10.24-41.69l-35.09,4.94-1.13,5.19,28.88-4.06ZM504.06,395.87c-.4-1.12-.76-2.28-1.08-3.48-5,8.33-10.71,16.08-17.04,22.16,6.62-4.58,12.69-11.14,18.12-18.68ZM552.47,295.36c-9.87,40.12-21.89,86.93-2.32,84.34,4.66-.62,8.59-3.28,11.95-7.43-1.45.69-2.99,1.16-4.61,1.37-19.57,2.59-7.55-44.22,2.32-84.34l-39.8,5.28c-.45,1.76-.9,3.51-1.34,5.26l33.8-4.48ZM520.4,491.3c7.71-1.02,14.76-4.38,20.92-10.9-4.24,2.65-8.78,4.2-13.59,4.84-7.3.97-11.8-2.48-12.51-7.79-.54-4.08,1.3-8.1,4.83-11.89-8.1,5.39-13.01,11.61-12.17,17.95.7,5.31,5.21,8.76,12.51,7.79ZM465.13,331.1c-11.01,53.13-7.74,63.7,5.13,61.89,3.1-.44,6.52-2.87,10.04-6.91-.92.43-1.83.73-2.71.85-12.44,1.75-15.91-8.07-6.18-56.72l-6.28.88ZM437.5,308.46l1.13-5.19-5.2.73-.97,5.16,5.03-.71ZM297.36,412.85c-14.03,1.97-2.34-37.84,9.05-90.43l-35.09,4.94c-.38,1.74-.75,3.46-1.13,5.19l28.88-4.06c-11.39,52.59-23.08,92.4-9.05,90.43,3.1-.44,6.52-2.87,10.04-6.91-.92.43-1.83.72-2.7.85ZM116.13,267.41c78.95-12.37,128.57,35.45,137.55,92.8.79,5.02,1.31,10.13,1.59,15.29,1.48-8.08,3.22-16.52,5.07-25.2-10.56-55.61-59.7-101.03-136.87-88.94-35.9,5.62-65.75,20.97-90.17,42.16,22.99-18.05,50.45-31.03,82.83-36.1ZM292.54,267.73c10.88,2.76,16.99,15.65,13.66,28.77-1.08,4.24-3.01,7.98-5.5,11.02,5.94-3.1,10.85-9.25,12.84-17.08,3.33-13.13-2.78-26.01-13.66-28.77-7.36-1.87-15.02,1.38-20.24,7.75,4.02-2.1,8.51-2.8,12.9-1.69ZM360.7,308.78l-2.49,14.07c14.7.62,38.54-1.55,49.36-3.07-8.03,25.58-19.39,67.73-17.75,79.43.49,3.51,2.83,5.27,5.75,4.86,3.1-.44,6.52-2.87,10.04-6.91-.92.43-1.83.73-2.71.85-2.92.41-5.26-1.35-5.75-4.86-1.65-11.7,9.72-53.85,17.75-79.43-10.82,1.52-34.67,3.68-49.36,3.07l2.49-14.07-30.41,4.28c-.22,1.69-.45,3.4-.68,5.12l23.76-3.34Z"/>
      <text class="cls-5" transform="translate(1389.77 399.25)"><tspan x="0" y="0">TM</tspan></text>
      <path class="cls-4" d="M1027.72,179.88l78.22-75.9c6-5.82,6.15-15.41.32-21.41h0c-5.82-6-15.41-6.15-21.41-.32l-62.86,60.99,1.93-127.87c.13-8.36-6.55-15.24-14.91-15.37h0c-8.36-.13-15.24,6.55-15.37,14.91l-1.93,127.85-60.98-62.84c-5.82-6-15.41-6.15-21.41-.32h0c-6,5.82-6.15,15.41-.32,21.41l75.9,78.22,14.18,14.62c3.82,3.93,10.1,4.03,14.03.21l14.62-14.18Z"/>
    </g>
  </g>
</svg>